<svg width="16" height="9" viewBox="0 0 16 9" fill="none" xmlns="http://www.w3.org/2000/svg">
<path d="M7.28425 7.80522L0.961579 1.48256C0.87437 1.39535 0.809254 1.30116 0.76623 1.2C0.723207 1.09884 0.701114 0.989534 0.699951 0.872092C0.699951 0.639534 0.780184 0.436045 0.940649 0.261627C1.10111 0.0872085 1.31158 0 1.57204 0H14.8278C15.0895 0 15.3005 0.0872085 15.461 0.261627C15.6215 0.436045 15.7011 0.639534 15.6999 0.872092C15.6999 0.930232 15.6127 1.13372 15.4383 1.48256L9.11564 7.80522C8.97029 7.95057 8.82494 8.05232 8.6796 8.11046C8.53425 8.1686 8.37436 8.19767 8.19995 8.19767C8.02553 8.19767 7.86564 8.1686 7.7203 8.11046C7.57495 8.05232 7.4296 7.95057 7.28425 7.80522Z" fill="black"/>
</svg>
