<svg width="21" height="21" viewBox="0 0 21 21" fill="none" xmlns="http://www.w3.org/2000/svg">
<path d="M20.5 20.5L15.6745 15.6745M15.6745 15.6745C16.4999 14.8491 17.1547 13.8692 17.6014 12.7907C18.0481 11.7122 18.278 10.5563 18.278 9.38902C18.278 8.22169 18.0481 7.0658 17.6014 5.98734C17.1547 4.90887 16.4999 3.92895 15.6745 3.10353C14.8491 2.27811 13.8692 1.62335 12.7907 1.17664C11.7122 0.729921 10.5563 0.5 9.38902 0.5C8.22169 0.5 7.0658 0.729921 5.98734 1.17664C4.90887 1.62335 3.92895 2.27811 3.10353 3.10353C1.43652 4.77055 0.5 7.0315 0.5 9.38902C0.5 11.7465 1.43652 14.0075 3.10353 15.6745C4.77055 17.3415 7.0315 18.278 9.38902 18.278C11.7465 18.278 14.0075 17.3415 15.6745 15.6745Z" stroke="black" stroke-opacity="0.5" stroke-linecap="round" stroke-linejoin="round"/>
</svg>
