<svg width="80" height="12" viewBox="0 0 80 12" fill="none" xmlns="http://www.w3.org/2000/svg">
<path d="M4.2916 2.04475C5.05178 0.681584 5.43157 0 5.99975 0C6.56794 0 6.94773 0.681584 7.70791 2.04475L7.90471 2.39754C8.1207 2.78513 8.2287 2.97893 8.3967 3.10673C8.56469 3.23452 8.77469 3.28192 9.19468 3.37672L9.57627 3.46312C11.0522 3.79731 11.7896 3.96411 11.9654 4.52869C12.1406 5.09268 11.6378 5.68127 10.6316 6.85784L10.3713 7.16203C10.0857 7.49622 9.94226 7.66362 9.87806 7.87001C9.81387 8.07701 9.83546 8.3002 9.87866 8.74599L9.91826 9.15218C10.0701 10.7223 10.1463 11.5071 9.68667 11.8557C9.22708 12.2043 8.5359 11.8863 7.15473 11.2503L6.79654 11.0859C6.40415 10.9047 6.20795 10.8147 5.99975 10.8147C5.79156 10.8147 5.59536 10.9047 5.20297 11.0859L4.84538 11.2503C3.46361 11.8863 2.77243 12.2043 2.31344 11.8563C1.85325 11.5071 1.92945 10.7223 2.08125 9.15218L2.12085 8.74659C2.16405 8.3002 2.18565 8.07701 2.12085 7.87061C2.05725 7.66362 1.91385 7.49622 1.62826 7.16263L1.36786 6.85784C0.361688 5.68187 -0.1411 5.09328 0.034096 4.52869C0.209292 3.96411 0.947874 3.79671 2.42384 3.46312L2.80543 3.37672C3.22482 3.28192 3.43422 3.23452 3.60281 3.10673C3.77141 2.97893 3.87881 2.78513 4.0948 2.39754L4.2916 2.04475Z" fill="#F1CB00"/>
<path d="M21.2916 2.04475C22.0518 0.681584 22.4316 0 22.9998 0C23.5679 0 23.9477 0.681584 24.7079 2.04475L24.9047 2.39754C25.1207 2.78513 25.2287 2.97893 25.3967 3.10673C25.5647 3.23452 25.7747 3.28192 26.1947 3.37672L26.5763 3.46312C28.0522 3.79731 28.7896 3.96411 28.9654 4.52869C29.1406 5.09268 28.6378 5.68127 27.6316 6.85784L27.3713 7.16203C27.0857 7.49622 26.9423 7.66362 26.8781 7.87001C26.8139 8.07701 26.8355 8.3002 26.8787 8.74599L26.9183 9.15218C27.0701 10.7223 27.1463 11.5071 26.6867 11.8557C26.2271 12.2043 25.5359 11.8863 24.1547 11.2503L23.7965 11.0859C23.4041 10.9047 23.208 10.8147 22.9998 10.8147C22.7916 10.8147 22.5954 10.9047 22.203 11.0859L21.8454 11.2503C20.4636 11.8863 19.7724 12.2043 19.3134 11.8563C18.8533 11.5071 18.9295 10.7223 19.0812 9.15218L19.1208 8.74659C19.164 8.3002 19.1856 8.07701 19.1208 7.87061C19.0572 7.66362 18.9139 7.49622 18.6283 7.16263L18.3679 6.85784C17.3617 5.68187 16.8589 5.09328 17.0341 4.52869C17.2093 3.96411 17.9479 3.79671 19.4238 3.46312L19.8054 3.37672C20.2248 3.28192 20.4342 3.23452 20.6028 3.10673C20.7714 2.97893 20.8788 2.78513 21.0948 2.39754L21.2916 2.04475Z" fill="#F1CB00"/>
<path d="M38.2916 2.04475C39.0518 0.681584 39.4316 0 39.9998 0C40.5679 0 40.9477 0.681584 41.7079 2.04475L41.9047 2.39754C42.1207 2.78513 42.2287 2.97893 42.3967 3.10673C42.5647 3.23452 42.7747 3.28192 43.1947 3.37672L43.5763 3.46312C45.0522 3.79731 45.7896 3.96411 45.9654 4.52869C46.1406 5.09268 45.6378 5.68127 44.6316 6.85784L44.3713 7.16203C44.0857 7.49622 43.9423 7.66362 43.8781 7.87001C43.8139 8.07701 43.8355 8.3002 43.8787 8.74599L43.9183 9.15218C44.0701 10.7223 44.1463 11.5071 43.6867 11.8557C43.2271 12.2043 42.5359 11.8863 41.1547 11.2503L40.7965 11.0859C40.4041 10.9047 40.208 10.8147 39.9998 10.8147C39.7916 10.8147 39.5954 10.9047 39.203 11.0859L38.8454 11.2503C37.4636 11.8863 36.7724 12.2043 36.3134 11.8563C35.8533 11.5071 35.9295 10.7223 36.0812 9.15218L36.1208 8.74659C36.164 8.3002 36.1856 8.07701 36.1208 7.87061C36.0572 7.66362 35.9139 7.49622 35.6283 7.16263L35.3679 6.85784C34.3617 5.68187 33.8589 5.09328 34.0341 4.52869C34.2093 3.96411 34.9479 3.79671 36.4238 3.46312L36.8054 3.37672C37.2248 3.28192 37.4342 3.23452 37.6028 3.10673C37.7714 2.97893 37.8788 2.78513 38.0948 2.39754L38.2916 2.04475Z" fill="#F1CB00"/>
<path d="M55.2916 2.04475C56.0518 0.681584 56.4316 0 56.9998 0C57.5679 0 57.9477 0.681584 58.7079 2.04475L58.9047 2.39754C59.1207 2.78513 59.2287 2.97893 59.3967 3.10673C59.5647 3.23452 59.7747 3.28192 60.1947 3.37672L60.5763 3.46312C62.0522 3.79731 62.7896 3.96411 62.9654 4.52869C63.1406 5.09268 62.6378 5.68127 61.6316 6.85784L61.3713 7.16203C61.0857 7.49622 60.9423 7.66362 60.8781 7.87001C60.8139 8.07701 60.8355 8.3002 60.8787 8.74599L60.9183 9.15218C61.0701 10.7223 61.1463 11.5071 60.6867 11.8557C60.2271 12.2043 59.5359 11.8863 58.1547 11.2503L57.7965 11.0859C57.4041 10.9047 57.208 10.8147 56.9998 10.8147C56.7916 10.8147 56.5954 10.9047 56.203 11.0859L55.8454 11.2503C54.4636 11.8863 53.7724 12.2043 53.3134 11.8563C52.8533 11.5071 52.9295 10.7223 53.0812 9.15218L53.1208 8.74659C53.164 8.3002 53.1856 8.07701 53.1208 7.87061C53.0572 7.66362 52.9139 7.49622 52.6283 7.16263L52.3679 6.85784C51.3617 5.68187 50.8589 5.09328 51.0341 4.52869C51.2093 3.96411 51.9479 3.79671 53.4238 3.46312L53.8054 3.37672C54.2248 3.28192 54.4342 3.23452 54.6028 3.10673C54.7714 2.97893 54.8788 2.78513 55.0948 2.39754L55.2916 2.04475Z" fill="#F1CB00"/>
<path d="M72.2916 2.04475C73.0518 0.681584 73.4316 0 73.9998 0C74.5679 0 74.9477 0.681584 75.7079 2.04475L75.9047 2.39754C76.1207 2.78513 76.2287 2.97893 76.3967 3.10673C76.5647 3.23452 76.7747 3.28192 77.1947 3.37672L77.5763 3.46312C79.0522 3.79731 79.7896 3.96411 79.9654 4.52869C80.1406 5.09268 79.6378 5.68127 78.6316 6.85784L78.3713 7.16203C78.0857 7.49622 77.9423 7.66362 77.8781 7.87001C77.8139 8.07701 77.8355 8.3002 77.8787 8.74599L77.9183 9.15218C78.0701 10.7223 78.1463 11.5071 77.6867 11.8557C77.2271 12.2043 76.5359 11.8863 75.1547 11.2503L74.7965 11.0859C74.4041 10.9047 74.208 10.8147 73.9998 10.8147C73.7916 10.8147 73.5954 10.9047 73.203 11.0859L72.8454 11.2503C71.4636 11.8863 70.7724 12.2043 70.3134 11.8563C69.8533 11.5071 69.9295 10.7223 70.0812 9.15218L70.1208 8.74659C70.164 8.3002 70.1856 8.07701 70.1208 7.87061C70.0572 7.66362 69.9139 7.49622 69.6283 7.16263L69.3679 6.85784C68.3617 5.68187 67.8589 5.09328 68.0341 4.52869C68.2093 3.96411 68.9479 3.79671 70.4238 3.46312L70.8054 3.37672C71.2248 3.28192 71.4342 3.23452 71.6028 3.10673C71.7714 2.97893 71.8788 2.78513 72.0948 2.39754L72.2916 2.04475Z" fill="#F1CB00"/>
</svg>
